<svg width="16" height="16" viewBox="0 0 16 16" fill="none" xmlns="http://www.w3.org/2000/svg">
<path d="M10.0833 14.0667L4.46667 8.46665C4.4 8.39999 4.35289 8.32776 4.32533 8.24999C4.29733 8.17221 4.28333 8.08888 4.28333 7.99999C4.28333 7.9111 4.29733 7.82776 4.32533 7.74999C4.35289 7.67221 4.4 7.59999 4.46667 7.53332L10.0833 1.91665C10.2389 1.7611 10.4333 1.68332 10.6667 1.68332C10.9 1.68332 11.1 1.76665 11.2667 1.93332C11.4333 2.09999 11.5167 2.29443 11.5167 2.51665C11.5167 2.73887 11.4333 2.93332 11.2667 3.09999L6.36667 7.99999L11.2667 12.9C11.4222 13.0555 11.5 13.2471 11.5 13.4747C11.5 13.7027 11.4167 13.9 11.25 14.0667C11.0833 14.2333 10.8889 14.3167 10.6667 14.3167C10.4444 14.3167 10.25 14.2333 10.0833 14.0667Z" fill="#777777"/>
</svg>
