<svg width="16" height="16" viewBox="0 0 16 16" fill="none" xmlns="http://www.w3.org/2000/svg">
<path d="M5.91667 1.93335L11.5333 7.53335C11.6 7.60001 11.6471 7.67224 11.6747 7.75001C11.7027 7.82779 11.7167 7.91112 11.7167 8.00001C11.7167 8.0889 11.7027 8.17224 11.6747 8.25001C11.6471 8.32779 11.6 8.40001 11.5333 8.46668L5.91667 14.0833C5.76111 14.2389 5.56667 14.3167 5.33333 14.3167C5.1 14.3167 4.9 14.2333 4.73333 14.0667C4.56667 13.9 4.48333 13.7056 4.48333 13.4833C4.48333 13.2611 4.56667 13.0667 4.73333 12.9L9.63333 8.00001L4.73333 3.10001C4.57778 2.94446 4.5 2.7529 4.5 2.52535C4.5 2.29735 4.58333 2.10001 4.75 1.93335C4.91667 1.76668 5.11111 1.68335 5.33333 1.68335C5.55556 1.68335 5.75 1.76668 5.91667 1.93335Z" fill="#777777"/>
</svg>
