<svg width="24" height="27" viewBox="0 0 24 27" fill="none" xmlns="http://www.w3.org/2000/svg">
<path d="M5 24.5966C4.45 24.5966 3.979 24.3861 3.587 23.9652C3.19567 23.5435 3 23.0369 3 22.4453V7.38651C3 6.79491 3.19567 6.28865 3.587 5.86772C3.979 5.44607 4.45 5.23524 5 5.23524H6V3.08398H8V5.23524H16V3.08398H18V5.23524H19C19.55 5.23524 20.021 5.44607 20.413 5.86772C20.8043 6.28865 21 6.79491 21 7.38651V22.4453C21 23.0369 20.8043 23.5435 20.413 23.9652C20.021 24.3861 19.55 24.5966 19 24.5966H5ZM5 22.4453H19V11.689H5V22.4453ZM5 9.53777H19V7.38651H5V9.53777ZM12 15.9915C11.7167 15.9915 11.4793 15.8883 11.288 15.6818C11.096 15.476 11 15.2207 11 14.9159C11 14.6112 11.096 14.3555 11.288 14.149C11.4793 13.9432 11.7167 13.8403 12 13.8403C12.2833 13.8403 12.521 13.9432 12.713 14.149C12.9043 14.3555 13 14.6112 13 14.9159C13 15.2207 12.9043 15.476 12.713 15.6818C12.521 15.8883 12.2833 15.9915 12 15.9915ZM8 15.9915C7.71667 15.9915 7.479 15.8883 7.287 15.6818C7.09567 15.476 7 15.2207 7 14.9159C7 14.6112 7.09567 14.3555 7.287 14.149C7.479 13.9432 7.71667 13.8403 8 13.8403C8.28333 13.8403 8.521 13.9432 8.713 14.149C8.90433 14.3555 9 14.6112 9 14.9159C9 15.2207 8.90433 15.476 8.713 15.6818C8.521 15.8883 8.28333 15.9915 8 15.9915ZM16 15.9915C15.7167 15.9915 15.4793 15.8883 15.288 15.6818C15.096 15.476 15 15.2207 15 14.9159C15 14.6112 15.096 14.3555 15.288 14.149C15.4793 13.9432 15.7167 13.8403 16 13.8403C16.2833 13.8403 16.5207 13.9432 16.712 14.149C16.904 14.3555 17 14.6112 17 14.9159C17 15.2207 16.904 15.476 16.712 15.6818C16.5207 15.8883 16.2833 15.9915 16 15.9915ZM12 20.2941C11.7167 20.2941 11.4793 20.1908 11.288 19.9843C11.096 19.7785 11 19.5232 11 19.2184C11 18.9137 11.096 18.6584 11.288 18.4526C11.4793 18.2461 11.7167 18.1428 12 18.1428C12.2833 18.1428 12.521 18.2461 12.713 18.4526C12.9043 18.6584 13 18.9137 13 19.2184C13 19.5232 12.9043 19.7785 12.713 19.9843C12.521 20.1908 12.2833 20.2941 12 20.2941ZM8 20.2941C7.71667 20.2941 7.479 20.1908 7.287 19.9843C7.09567 19.7785 7 19.5232 7 19.2184C7 18.9137 7.09567 18.6584 7.287 18.4526C7.479 18.2461 7.71667 18.1428 8 18.1428C8.28333 18.1428 8.521 18.2461 8.713 18.4526C8.90433 18.6584 9 18.9137 9 19.2184C9 19.5232 8.90433 19.7785 8.713 19.9843C8.521 20.1908 8.28333 20.2941 8 20.2941ZM16 20.2941C15.7167 20.2941 15.4793 20.1908 15.288 19.9843C15.096 19.7785 15 19.5232 15 19.2184C15 18.9137 15.096 18.6584 15.288 18.4526C15.4793 18.2461 15.7167 18.1428 16 18.1428C16.2833 18.1428 16.5207 18.2461 16.712 18.4526C16.904 18.6584 17 18.9137 17 19.2184C17 19.5232 16.904 19.7785 16.712 19.9843C16.5207 20.1908 16.2833 20.2941 16 20.2941Z" fill="#333333"/>
</svg>
