<svg width="32" height="32" viewBox="0 0 32 32" fill="none" xmlns="http://www.w3.org/2000/svg">
<path d="M24.0607 17.0607C24.6464 16.4749 24.6464 15.5251 24.0607 14.9393L14.5147 5.3934C13.9289 4.80761 12.9792 4.80761 12.3934 5.3934C11.8076 5.97918 11.8076 6.92893 12.3934 7.51472L20.8787 16L12.3934 24.4853C11.8076 25.0711 11.8076 26.0208 12.3934 26.6066C12.9792 27.1924 13.9289 27.1924 14.5147 26.6066L24.0607 17.0607ZM1 17.5L23 17.5V14.5L1 14.5L1 17.5Z" fill="#00A8FF"/>
<path d="M30.9999 16C30.9999 24.2843 24.2842 31 15.9999 31C7.71568 31 0.999949 24.2843 0.999949 16C0.999949 7.71573 7.71568 1 15.9999 1C24.2842 1 30.9999 7.71573 30.9999 16Z" stroke="#00A8FF" stroke-width="2"/>
<path d="M13 26H21" stroke="#00A8FF" stroke-width="3" stroke-linecap="round"/>
</svg>
