<svg width="32" height="32" viewBox="0 0 32 32" fill="none" xmlns="http://www.w3.org/2000/svg">
<circle cx="16" cy="16" r="16" fill="#CCCCCC"/>
<g clip-path="url(#clip0_222_5)">
<path d="M15.993 15.573C16.584 15.573 17.1691 15.4566 17.7151 15.2305C18.2611 15.0043 18.7571 14.6728 19.175 14.255C19.5929 13.8371 19.9243 13.341 20.1505 12.7951C20.3766 12.2491 20.493 11.6639 20.493 11.073C20.493 10.4821 20.3766 9.89689 20.1505 9.35092C19.9243 8.80496 19.5929 8.30888 19.175 7.89102C18.7571 7.47316 18.2611 7.14169 17.7151 6.91554C17.1691 6.6894 16.584 6.573 15.993 6.573C14.7995 6.573 13.655 7.04711 12.811 7.89102C11.9671 8.73493 11.493 9.87953 11.493 11.073C11.493 12.2665 11.9671 13.4111 12.811 14.255C13.655 15.0989 14.7995 15.573 15.993 15.573ZM16 5C17.3172 4.99957 18.598 5.43261 19.6446 6.2323C20.6913 7.03199 21.4457 8.15389 21.7915 9.42489C22.1373 10.6959 22.0553 12.0454 21.558 13.2651C21.0607 14.4848 20.1759 15.507 19.04 16.174C22.728 17.284 25.498 20.392 25.995 24.252C26.042 24.619 25.769 24.952 25.385 24.997C25.002 25.042 24.652 24.782 24.605 24.415C24.065 20.225 20.436 17.07 16.035 17.07C11.61 17.07 7.93402 20.231 7.39502 24.415C7.34802 24.782 6.99802 25.042 6.61502 24.997C6.23102 24.952 5.95802 24.619 6.00502 24.252C6.50102 20.408 9.28602 17.304 12.98 16.184C11.8407 15.5201 10.9518 14.4993 10.4509 13.2795C9.94987 12.0598 9.86468 10.7089 10.2084 9.43585C10.5522 8.1628 11.3058 7.03844 12.3526 6.23663C13.3995 5.43482 14.6814 5.00021 16 5Z" fill="#777777"/>
</g>
<defs>
<clipPath id="clip0_222_5">
<rect width="20" height="20" fill="white" transform="translate(6 5)"/>
</clipPath>
</defs>
</svg>
